<svg width="40" height="40" viewBox="0 0 40 40" fill="none" xmlns="http://www.w3.org/2000/svg">
<path d="M13.3333 28.6249V11.3749C13.3333 10.9027 13.5 10.5066 13.8333 10.1866C14.1666 9.86659 14.5555 9.70715 15 9.70826C15.1389 9.70826 15.285 9.72881 15.4383 9.76992C15.5916 9.81104 15.7372 9.87381 15.875 9.95826L29.4583 18.5833C29.7083 18.7499 29.8961 18.9583 30.0216 19.2083C30.1472 19.4583 30.2094 19.7221 30.2083 19.9999C30.2072 20.2777 30.145 20.5416 30.0216 20.7916C29.8983 21.0416 29.7105 21.2499 29.4583 21.4166L15.875 30.0416C15.7361 30.1249 15.5905 30.1877 15.4383 30.2299C15.2861 30.2721 15.14 30.2927 15 30.2916C14.5555 30.2916 14.1666 30.1316 13.8333 29.8116C13.5 29.4916 13.3333 29.096 13.3333 28.6249Z" fill="white"/>
</svg>
