<svg width="40" height="40" viewBox="0 0 40 40" fill="none" xmlns="http://www.w3.org/2000/svg">
<path fill-rule="evenodd" clip-rule="evenodd" d="M23.68 8.04992C24.4355 8.28325 25.1578 8.58325 25.8466 8.94992L28.9016 7.11659C29.2202 6.92552 29.5935 6.84635 29.9621 6.89164C30.3308 6.93694 30.6738 7.1041 30.9366 7.36659L32.6333 9.06325C32.8958 9.32609 33.063 9.66908 33.1083 10.0378C33.1535 10.4064 33.0744 10.7797 32.8833 11.0983L31.05 14.1533C31.4166 14.8421 31.7166 15.5644 31.95 16.3199L35.405 17.1849C35.7654 17.2752 36.0853 17.4833 36.3139 17.7762C36.5425 18.0691 36.6666 18.43 36.6666 18.8016V21.1983C36.6666 21.5698 36.5425 21.9307 36.3139 22.2236C36.0853 22.5165 35.7654 22.7246 35.405 22.8149L31.95 23.6799C31.7166 24.4355 31.4166 25.1577 31.05 25.8466L32.8833 28.9016C33.0744 29.2201 33.1535 29.5934 33.1083 29.9621C33.063 30.3308 32.8958 30.6738 32.6333 30.9366L30.9366 32.6333C30.6738 32.8957 30.3308 33.0629 29.9621 33.1082C29.5935 33.1535 29.2202 33.0743 28.9016 32.8833L25.8466 31.0499C25.1578 31.4166 24.4355 31.7166 23.68 31.9499L22.815 35.4049C22.7247 35.7653 22.5166 36.0852 22.2237 36.3138C21.9308 36.5424 21.5699 36.6666 21.1983 36.6666H18.8016C18.4301 36.6666 18.0692 36.5424 17.7763 36.3138C17.4834 36.0852 17.2753 35.7653 17.185 35.4049L16.32 31.9499C15.5711 31.7185 14.8457 31.4172 14.1533 31.0499L11.0983 32.8833C10.7798 33.0743 10.4065 33.1535 10.0378 33.1082C9.66914 33.0629 9.32615 32.8957 9.06331 32.6333L7.36665 30.9366C7.10416 30.6738 6.937 30.3308 6.89171 29.9621C6.84641 29.5934 6.92558 29.2201 7.11665 28.9016L8.94998 25.8466C8.58272 25.1542 8.28139 24.4288 8.04998 23.6799L4.59498 22.8149C4.23485 22.7247 3.91514 22.5168 3.68658 22.2243C3.45802 21.9317 3.33369 21.5712 3.33331 21.1999V18.8033C3.33332 18.4317 3.45748 18.0708 3.68607 17.7779C3.91466 17.485 4.23457 17.2769 4.59498 17.1866L8.04998 16.3216C8.28331 15.566 8.58331 14.8438 8.94998 14.1549L7.11665 11.0999C6.92558 10.7814 6.84641 10.4081 6.89171 10.0394C6.937 9.67074 7.10416 9.32775 7.36665 9.06492L9.06331 7.36659C9.32615 7.1041 9.66914 6.93694 10.0378 6.89164C10.4065 6.84635 10.7798 6.92552 11.0983 7.11659L14.1533 8.94992C14.8422 8.58325 15.5644 8.28325 16.32 8.04992L17.185 4.59492C17.2752 4.23478 17.4831 3.91508 17.7756 3.68652C18.0682 3.45796 18.4287 3.33363 18.8 3.33325H21.1966C21.5682 3.33326 21.9291 3.45742 22.222 3.68601C22.5149 3.9146 22.723 4.23451 22.8133 4.59492L23.68 8.04992ZM20 26.6666C21.7681 26.6666 23.4638 25.9642 24.714 24.714C25.9643 23.4637 26.6666 21.768 26.6666 19.9999C26.6666 18.2318 25.9643 16.5361 24.714 15.2859C23.4638 14.0356 21.7681 13.3333 20 13.3333C18.2319 13.3333 16.5362 14.0356 15.2859 15.2859C14.0357 16.5361 13.3333 18.2318 13.3333 19.9999C13.3333 21.768 14.0357 23.4637 15.2859 24.714C16.5362 25.9642 18.2319 26.6666 20 26.6666Z" fill="black"/>
</svg>
